<?xml version="1.0" encoding="UTF-8"?>
<svg version="1.1" xmlns="http://www.w3.org/2000/svg" width="1024" height="1024">
<path d="M0 0 C337.92 0 675.84 0 1024 0 C1024 337.92 1024 675.84 1024 1024 C686.08 1024 348.16 1024 0 1024 C0 686.08 0 348.16 0 0 Z " fill="#FDFEFD" transform="translate(0,0)"/>
<path d="M0 0 C1.89214233 0.00628418 1.89214233 0.00628418 3.82250977 0.01269531 C19.94726917 0.20437756 35.84697967 1.95433173 51.125 7.3125 C51.73923828 7.52777344 52.35347656 7.74304688 52.98632812 7.96484375 C61.68759845 11.07306746 69.62069178 14.84490225 77.125 20.3125 C77.83011719 20.82167969 78.53523437 21.33085937 79.26171875 21.85546875 C93.40649114 33.11015012 100.51845817 51.02858422 102.68359375 68.49609375 C105.35733603 94.33323013 101.91008818 119.89318638 85.5 140.875 C74.98081352 152.42707817 60.12979279 159.63999827 45.125 163.3125 C44.48771973 163.47347168 43.85043945 163.63444336 43.19384766 163.80029297 C40.98577842 164.35620924 38.77497039 164.89937692 36.5625 165.4375 C35.86592285 165.60854248 35.1693457 165.77958496 34.45166016 165.95581055 C26.44895733 167.83863373 19.09151261 168.38197454 10.890625 167.91796875 C-8.24565673 166.92016289 -21.42521933 167.07633489 -36.48925781 180.27099609 C-40.71702886 183.88874287 -45.27338016 187.03935265 -49.8125 190.25 C-51.04818726 191.18126709 -51.04818726 191.18126709 -52.30883789 192.13134766 C-58.08101023 196.33945913 -58.08101023 196.33945913 -62.44140625 196.19140625 C-63.24449219 195.90136719 -64.04757813 195.61132812 -64.875 195.3125 C-65.84542958 189.82376493 -65.85773091 184.74910279 -65.5859375 179.1953125 C-65.52945916 177.4362945 -65.47617232 175.67717165 -65.42578125 173.91796875 C-65.34577405 171.17465435 -65.2499851 168.43722761 -65.10009766 165.69677734 C-64.20087595 154.85807126 -64.20087595 154.85807126 -68.20117188 145.23657227 C-70.9871989 142.99146928 -73.80725296 141.14513729 -76.875 139.3125 C-78.69764485 137.6362844 -80.07990275 135.95052567 -81.625 134 C-82.27984375 133.19949219 -82.9346875 132.39898438 -83.609375 131.57421875 C-84.875 129.3125 -84.875 129.3125 -84.578125 127.01953125 C-84.23007813 126.17455078 -84.23007813 126.17455078 -83.875 125.3125 C-77.96109521 124.58165174 -77.96109521 124.58165174 -75.20751953 126.43457031 C-73.53148972 128.03854069 -71.97579407 129.70102081 -70.4375 131.4375 C-69.38183852 132.59102874 -68.32059226 133.73947061 -67.25390625 134.8828125 C-66.72104004 135.47400879 -66.18817383 136.06520508 -65.63916016 136.67431641 C-63.93695918 138.40873269 -63.93695918 138.40873269 -61.70068359 139.39990234 C-58.98041867 140.79588326 -57.62149718 141.77033152 -55.875 144.3125 C-54.49223174 150.61314787 -55.12861261 157.29188774 -55.375 163.6875 C-55.41515264 165.49080694 -55.45165032 167.29419922 -55.484375 169.09765625 C-55.57229588 173.50471621 -55.71019137 177.90767238 -55.875 182.3125 C-54.89104248 181.65652832 -53.90708496 181.00055664 -52.89331055 180.32470703 C-19.4497284 158.0289856 -19.4497284 158.0289856 -12.11328125 158.2578125 C-10.51475045 158.28688331 -8.91619737 158.31474853 -7.31762695 158.34155273 C-6.47994781 158.35821991 -5.64226868 158.37488708 -4.77920532 158.39205933 C24.05741972 158.89765526 54.45740081 156.53080462 76.875 136.25 C83.95476883 128.82766171 88.70410406 118.23476365 91.125 108.3125 C91.32867187 107.47976563 91.53234375 106.64703125 91.7421875 105.7890625 C95.91431813 84.47118956 95.22124761 59.00914998 83.125 40.3125 C69.84556331 22.62357665 48.1434195 13.80917811 26.73583984 10.68310547 C19.36011813 9.92608413 11.97170458 9.8712042 4.5625 9.875 C3.41929291 9.87439575 3.41929291 9.87439575 2.25299072 9.8737793 C-22.8455751 9.95226094 -49.85684478 14.35405137 -69.0625 31.875 C-77.39041799 40.8185341 -81.17087559 50.04485814 -83.29125977 61.80957031 C-84.71353311 68.99006992 -87.74819104 73.98624996 -92.875 79.3125 C-93.205 79.3125 -93.535 79.3125 -93.875 79.3125 C-94.69171131 60.77769052 -91.3230515 43.20410804 -78.95703125 28.76171875 C-71.93217253 21.10516731 -64.18332326 15.81652738 -54.875 11.3125 C-53.90046875 10.83296875 -52.9259375 10.3534375 -51.921875 9.859375 C-43.59562648 6.08298906 -34.81189351 4.06532645 -25.875 2.3125 C-24.53091064 2.04215942 -24.53091064 2.04215942 -23.15966797 1.76635742 C-15.40743344 0.3266934 -7.87513905 -0.03606367 0 0 Z " fill="#0A0B15" transform="translate(262.875,419.6875)"/>
<path d="M0 0 C1.49660156 0.50080078 1.49660156 0.50080078 3.0234375 1.01171875 C15.5885412 5.79910952 25.68542641 14.14014069 36.24609375 22.265625 C54.09780707 35.95654042 70.97578062 44.268665 94 42 C103.11301578 40.27729344 111.02197315 35.53675855 119 31 C119.66 30.67 120.32 30.34 121 30 C115.17459711 43.29307362 100.92418832 51.84211413 88 57 C79.9408349 59.96050963 72.49442943 60.21701097 64 60 C63.00226563 59.98324219 62.00453125 59.96648438 60.9765625 59.94921875 C42.72961441 59.11110434 28.22470076 47.37891985 14.46875 36.51171875 C-3.85074469 22.05575852 -20.47387784 12.10620626 -44.6640625 14.234375 C-46.44809511 14.44871107 -48.22570566 14.71611291 -50 15 C-47.9744158 8.92324741 -39.84070143 4.54149828 -34.34375 1.55859375 C-23.75373016 -3.22456521 -11.06024181 -3.75456369 0 0 Z " fill="#46A6D2" transform="translate(222,497)"/>
<path d="M0 0 C18.63813253 14.67316235 35.80895869 27.22942729 60.64111328 24.29199219 C63.85404984 23.4503425 66.7003145 22.46268991 69.70751953 21.06933594 C70.34560547 20.8128125 70.98369141 20.55628906 71.64111328 20.29199219 C72.30111328 20.62199219 72.96111328 20.95199219 73.64111328 21.29199219 C67.05578167 28.66406695 60.76383201 33.47257954 51.64111328 37.29199219 C50.82255859 37.65292969 50.00400391 38.01386719 49.16064453 38.38574219 C37.37652165 42.62437243 22.86601064 41.37677475 11.64111328 36.29199219 C10.77744141 35.90269531 9.91376953 35.51339844 9.02392578 35.11230469 C-0.55126102 30.31050478 -8.87792539 23.33255863 -17.29882812 16.78320312 C-26.21935031 9.86317998 -34.89493067 4.61625354 -45.35888672 0.29199219 C-46.20193359 -0.07796875 -47.04498047 -0.44792969 -47.91357422 -0.82910156 C-58.69602886 -4.70458446 -74.95997961 -4.5447088 -85.35888672 0.29199219 C-86.70420109 1.02028267 -88.03865008 1.76917074 -89.35888672 2.54199219 C-90.34888672 3.11949219 -91.33888672 3.69699219 -92.35888672 4.29199219 C-93.01888672 3.96199219 -93.67888672 3.63199219 -94.35888672 3.29199219 C-86.24814424 -7.01084286 -74.58794676 -17.70124484 -61.07373047 -19.34472656 C-36.76106154 -21.49354791 -19.07104615 -15.06802682 0 0 Z " fill="#9AD3A5" transform="translate(274.35888671875,492.7080078125)"/>
<path d="M0 0 C4.29 0 8.58 0 13 0 C13.33 8.25 13.66 16.5 14 25 C15.65 23.68 17.3 22.36 19 21 C21.5625 20.25 21.5625 20.25 25 20 C25.89074219 19.91363281 26.78148437 19.82726562 27.69921875 19.73828125 C35.59385583 19.28340459 40.99079568 20.74861719 47 26 C51.8744054 31.83737347 54.14340382 36.66622304 54.1875 44.3125 C54.20167969 45.42238281 54.21585938 46.53226563 54.23046875 47.67578125 C53.73571299 54.81200413 50.64187618 60.65987549 46 66 C40.00450191 70.4649572 33.76329179 72.40620682 26.265625 72.36328125 C21.77823593 71.64375162 16.25783957 69.25783957 13 66 C12.67 67.65 12.34 69.3 12 71 C8.04 71 4.08 71 0 71 C0 47.57 0 24.14 0 0 Z " fill="#050611" transform="translate(496,469)"/>
<path d="M0 0 C4.08512744 2.43325544 6.66047082 4.93713849 9.3125 8.875 C9.910625 9.720625 10.50875 10.56625 11.125 11.4375 C12.3125 14.875 12.3125 14.875 12.3125 27.875 C-0.2275 27.875 -12.7675 27.875 -25.6875 27.875 C-22.87651414 34.01604594 -22.87651414 34.01604594 -17.6875 36.875 C-10.96488139 37.79788977 -5.60492193 37.27751761 0.3125 33.875 C2.4375 33.875 2.4375 33.875 4.3125 34.875 C6.5625 37.4375 6.5625 37.4375 8.3125 39.875 C6.80942398 44.55123652 3.4471469 45.73384357 -0.6875 47.875 C-4.144102 49.603301 -8.00309235 49.14434206 -11.8125 49.1875 C-12.64265625 49.21650391 -13.4728125 49.24550781 -14.328125 49.27539062 C-21.7984612 49.35149907 -26.92122548 47.33391069 -32.5 42.375 C-39.02384811 34.91917359 -40.28644517 28.55588999 -40.12109375 18.64453125 C-39.34337416 11.88327538 -36.60051089 7.29260087 -31.390625 2.96875 C-22.4152087 -3.24951228 -10.10185982 -4.76099738 0 0 Z " fill="#0A0A16" transform="translate(597.6875,491.125)"/>
<path d="M0 0 C1.49660156 0.50080078 1.49660156 0.50080078 3.0234375 1.01171875 C15.5885412 5.79910952 25.68542641 14.14014069 36.24609375 22.265625 C53.04809439 35.15149009 68.59257376 42.450387 90 43 C90 43.33 90 43.66 90 44 C70.09176371 46.20716999 56.3645674 41.31309293 38.1965332 33.39135742 C37.22031006 32.96830322 36.24408691 32.54524902 35.23828125 32.109375 C34.37243408 31.72749023 33.50658691 31.34560547 32.61450195 30.95214844 C29.75464606 29.91064708 27.00966146 29.41459482 24 29 C24 28.34 24 27.68 24 27 C22.83984375 26.83564453 22.83984375 26.83564453 21.65625 26.66796875 C15.39348771 25.71460271 9.83578557 24.4689862 4 22 C5.55455064 24.33182595 6.55612479 25.79111755 9.125 27 C11 28 11 28 11.75 30.125 C11.8325 30.74375 11.915 31.3625 12 32 C7.89444779 32 6.35452558 30.29314243 3.0625 27.875 C-13.51365063 16.06841311 -29.73827662 11.75812426 -50 15 C-47.9744158 8.92324741 -39.84070143 4.54149828 -34.34375 1.55859375 C-23.75373016 -3.22456521 -11.06024181 -3.75456369 0 0 Z " fill="#6DC0D3" transform="translate(222,497)"/>
<path d="M0 0 C4.41265747 2.5651149 6.18672746 5.34659488 8.15234375 10.08984375 C8.54199667 13.06413624 8.50327131 15.99285672 8.4453125 18.98828125 C8.44106766 19.82324127 8.43682281 20.65820129 8.43244934 21.51846313 C8.41574708 24.1675941 8.3781115 26.81594535 8.33984375 29.46484375 C8.32478595 31.26821813 8.31109946 33.07160451 8.29882812 34.875 C8.26587137 39.28024525 8.21414844 43.68491261 8.15234375 48.08984375 C6.83234375 48.08984375 5.51234375 48.08984375 4.15234375 48.08984375 C3.65734375 45.11984375 3.65734375 45.11984375 3.15234375 42.08984375 C2.59804688 42.51136719 2.04375 42.93289063 1.47265625 43.3671875 C0.74820313 43.91503906 0.02375 44.46289062 -0.72265625 45.02734375 C-1.44195313 45.57261719 -2.16125 46.11789062 -2.90234375 46.6796875 C-6.70187745 49.43396795 -10.043925 49.34113768 -14.59765625 49.40234375 C-15.30148437 49.43134766 -16.0053125 49.46035156 -16.73046875 49.49023438 C-21.90285774 49.55272606 -24.72368835 48.44898081 -28.84765625 45.08984375 C-32.75498834 40.77121355 -33.55291928 37.15234091 -33.2890625 31.4921875 C-32.55738274 27.51003657 -30.88408448 25.68345953 -27.84765625 23.08984375 C-21.09782792 19.85299426 -15.25375846 19.72159407 -7.84765625 19.90234375 C-6.78675781 19.91587891 -5.72585938 19.92941406 -4.6328125 19.94335938 C-2.03721938 19.97843496 0.55728442 20.02758531 3.15234375 20.08984375 C3.03270659 18.6502413 2.90157557 17.21159107 2.765625 15.7734375 C2.69384033 14.97220459 2.62205566 14.17097168 2.5480957 13.34545898 C1.97135198 10.0582688 0.54856148 8.34913475 -1.84765625 6.08984375 C-6.76059739 3.02330466 -12.2579349 3.5953684 -17.84765625 4.08984375 C-20.66273584 4.87534176 -23.15000176 5.93370611 -25.84765625 7.08984375 C-27.16765625 7.08984375 -28.48765625 7.08984375 -29.84765625 7.08984375 C-30.17765625 6.09984375 -30.50765625 5.10984375 -30.84765625 4.08984375 C-23.03121079 -2.52407164 -9.54894968 -3.05199626 0 0 Z " fill="#080A0F" transform="translate(796.84765625,490.91015625)"/>
<path d="M0 0 C4.62 0 9.24 0 14 0 C19.27209787 11.22010573 24.15518814 22.5902577 29 34 C29.21092285 33.46745605 29.4218457 32.93491211 29.63916016 32.38623047 C33.94729264 21.52356544 38.34047226 10.71691379 43 0 C47.62 0 52.24 0 57 0 C55.49338324 4.51985027 53.85084095 8.79577293 51.91796875 13.12890625 C51.30924209 14.50846235 50.70051823 15.88801968 50.09179688 17.26757812 C49.14497821 19.40443269 48.19712302 21.54082381 47.2487793 23.67700195 C43.24566347 32.70528338 39.46680178 41.74859182 36 51 C31.05 51 26.1 51 21 51 C20.32195312 49.38996094 19.64390625 47.77992188 18.9453125 46.12109375 C18.00548847 43.89311098 17.06536164 41.66525592 16.125 39.4375 C15.38866333 37.69243164 15.38866333 37.69243164 14.63745117 35.91210938 C10.83405083 26.91992788 6.95635861 17.96219099 2.99853516 9.03686523 C2.40564697 7.68830444 2.40564697 7.68830444 1.80078125 6.3125 C1.27738159 5.13107422 1.27738159 5.13107422 0.7434082 3.92578125 C0 2 0 2 0 0 Z " fill="#090A15" transform="translate(403,489)"/>
<path d="M0 0 C1.65 0 3.3 0 5 0 C5.33 9.9 5.66 19.8 6 30 C8.31 28.02 10.62 26.04 13 24 C19.35094772 20.82452614 27.5882204 20.97164915 34.3125 23.0625 C39.5355134 25.33617318 42.93938132 29.39880836 45.06445312 34.6105957 C46.15117451 38.547692 46.25216258 42.19640317 46.1953125 46.2421875 C46.1924826 47.01055939 46.18965271 47.77893127 46.18673706 48.57058716 C46.17561311 51.00555521 46.1505236 53.44014462 46.125 55.875 C46.11496011 57.53384882 46.10583603 59.19270346 46.09765625 60.8515625 C46.07569937 64.90118579 46.04122406 68.95052887 46 73 C44.02 73 42.04 73 40 73 C39.98598145 71.36587158 39.98598145 71.36587158 39.97167969 69.69873047 C39.93167019 65.63923946 39.86588171 61.58049759 39.79248047 57.52148438 C39.76433416 55.76800188 39.74308815 54.01439401 39.72900391 52.26074219 C39.70748573 49.73307401 39.66079298 47.20690316 39.609375 44.6796875 C39.60814636 43.90132538 39.60691772 43.12296326 39.60565186 42.3210144 C39.46741393 37.13102045 38.4200969 34.12296502 35 30 C29.56006531 26.86819068 23.07332746 27.38042881 17 28 C11.96640367 30.3843351 8.50003213 33.99993573 6 39 C5.84355828 41.55106029 5.74178611 44.07918663 5.68359375 46.6328125 C5.66281265 47.38464813 5.64203156 48.13648376 5.62062073 48.91110229 C5.55517295 51.31564085 5.49626262 53.72028967 5.4375 56.125 C5.39431023 57.75391771 5.35069579 59.38282422 5.30664062 61.01171875 C5.19949649 65.00769915 5.09821567 69.00379059 5 73 C3.35 73 1.7 73 0 73 C0 48.91 0 24.82 0 0 Z " fill="#222629" transform="translate(701,467)"/>
<path d="M0 0 C2.59077623 1.50666229 4.69301136 3.06856765 7 5 C6.34 6.32 5.68 7.64 5 9 C2.3570134 8.01831926 0.0143339 7.00905299 -2.375 5.5 C-9.75826752 1.28098999 -18.30388692 0.81041541 -26.5625 2.53515625 C-36.51077432 5.61038294 -41.73368285 11.44726084 -46.875 20.1875 C-49.3340282 28.52087334 -48.92650569 36.88970727 -45.25390625 44.78515625 C-41.23422821 51.88533521 -36.27913173 55.47690024 -29 59 C-28.34 59.33 -27.68 59.66 -27 60 C-17.00556434 60.82331639 -8.73711106 61.19116187 -0.1640625 55.3125 C2 54 2 54 6 54 C6 55.32 6 56.64 6 58 C4.2421875 59.6328125 4.2421875 59.6328125 1.875 61.125 C1.10929688 61.62257813 0.34359375 62.12015625 -0.4453125 62.6328125 C-6.01253907 65.6122151 -11.05585826 66.36116277 -17.3125 66.3125 C-18.06724609 66.30686035 -18.82199219 66.3012207 -19.59960938 66.29541016 C-29.21164288 66.08600218 -36.56647078 63.20160724 -44 57 C-52.12145479 48.45389398 -54.463554 38.25250011 -54.33203125 26.73828125 C-53.48619191 17.21512544 -49.29440134 10.231921 -42.3359375 3.83984375 C-39.09329229 1.28585396 -35.85999696 -0.55903402 -32 -2 C-31.05640625 -2.35449219 -30.1128125 -2.70898438 -29.140625 -3.07421875 C-19.33496668 -5.96469266 -9.23217732 -3.88919448 0 0 Z " fill="#0D0E14" transform="translate(677,474)"/>
<path d="M0 0 C5.12588145 1.65070759 10.16747374 3.42481823 15.1875 5.375 C37.02619689 13.80751418 58.31568161 20.42500408 82 20 C77.27977155 26.00756348 69.29421639 28.07034497 62 29 C51.62101757 29.63693957 42.63799125 29.36592766 33 25 C32.13632812 24.61070312 31.27265625 24.22140625 30.3828125 23.8203125 C21.52899748 19.38026877 13.75022656 13.1098348 6 7 C5.4013916 6.53352051 4.8027832 6.06704102 4.18603516 5.58642578 C2.75095629 4.43895135 1.36943978 3.22506473 0 2 C0 1.34 0 0.68 0 0 Z " fill="#74C09A" transform="translate(253,504)"/>
<path d="M0 0 C4.29 0 8.58 0 13 0 C13 16.17 13 32.34 13 49 C8.71 49 4.42 49 0 49 C0 32.83 0 16.66 0 0 Z " fill="#02040C" transform="translate(467,490)"/>
<path d="M0 0 C3.98895907 2.07459605 6.50751232 4.04995134 8.03515625 8.2734375 C8.68287876 13.56856898 8.66458843 17.86350942 6.47265625 22.7734375 C2.64052652 26.70382697 -1.07531822 27.9298874 -6.40234375 28.8984375 C-11.52196271 28.00025873 -14.58048354 25.12830632 -17.96484375 21.2734375 C-19.84149366 15.64348777 -19.90233526 10.18314242 -17.27734375 4.8359375 C-12.43332183 -0.53176247 -7.00179444 -2.58913274 0 0 Z " fill="#F7F8F7" transform="translate(527.96484375,500.7265625)"/>
<path d="M0 0 C0.97453125 0.00902344 1.9490625 0.01804687 2.953125 0.02734375 C5.34400728 0.05078377 7.73437261 0.08359558 10.125 0.125 C10.98525979 11.93923451 10.98525979 11.93923451 8 15.6875 C1.88278991 20.87383029 -2.86373188 21.71769729 -10.796875 21.5546875 C-15.30447333 20.92545423 -16.94900503 19.5386608 -19.875 16.125 C-21.42524464 13.02451072 -21.16492015 10.54605782 -20.875 7.125 C-19.05995227 3.98357123 -17.70799135 2.50590902 -14.40625 0.99609375 C-9.56451732 -0.19827172 -4.96446693 -0.08744996 0 0 Z " fill="#F6F7F6" transform="translate(789.875,514.875)"/>
<path d="M0 0 C1.65 0 3.3 0 5 0 C5 4.29 5 8.58 5 13 C10.28 13 15.56 13 21 13 C21 14.32 21 15.64 21 17 C15.72 17 10.44 17 5 17 C5.02811329 22.03739017 5.07121187 27.07003664 5.15258789 32.10620117 C5.17574025 33.81801859 5.19015715 35.5299779 5.19555664 37.24194336 C5.20486703 39.70776498 5.24589779 42.17136374 5.29296875 44.63671875 C5.2890361 45.39836838 5.28510345 46.16001801 5.28105164 46.94474792 C5.39101907 50.97757302 5.85019172 52.81229338 8.3972168 56.00366211 C10.77141374 58.17027205 10.77141374 58.17027205 13.3515625 58.3046875 C14.10179687 58.16289063 14.85203125 58.02109375 15.625 57.875 C16.38039063 57.74867188 17.13578125 57.62234375 17.9140625 57.4921875 C20.17408767 56.99192196 20.17408767 56.99192196 23 56 C23.495 57.98 23.495 57.98 24 60 C19.84992768 63.73307941 16.30854059 63.55591994 10.921875 63.41796875 C6.43695462 62.77640928 4.90809476 61.44379643 2 58 C-0.30072952 53.64028071 -0.26056803 49.45158983 -0.1953125 44.63671875 C-0.1924826 43.84473587 -0.18965271 43.05275299 -0.18673706 42.23677063 C-0.17558863 39.72019001 -0.15049422 37.20397211 -0.125 34.6875 C-0.11496329 32.97591662 -0.10583864 31.26432763 -0.09765625 29.55273438 C-0.07566681 25.36835094 -0.04117408 21.18423686 0 17 C-2.97 17 -5.94 17 -9 17 C-9 15.68 -9 14.36 -9 13 C-6.03 13 -3.06 13 0 13 C0 8.71 0 4.42 0 0 Z " fill="#1A1D25" transform="translate(829,477)"/>
<path d="M0 0 C3 0 3 0 5.5625 2.4375 C6.366875 3.283125 7.17125 4.12875 8 5 C12.14864835 7.07432417 17.47058964 6.3616414 22 6 C25.3850877 4.56000293 25.3850877 4.56000293 28 3 C30.125 3 30.125 3 32 4 C34.25 6.5625 34.25 6.5625 36 9 C34.49692398 13.67623652 31.1346469 14.85884357 27 17 C23.543398 18.728301 19.68440765 18.26934206 15.875 18.3125 C15.04484375 18.34150391 14.2146875 18.37050781 13.359375 18.40039062 C6.71707644 18.46806295 1.5128324 17.00892931 -3.59814453 12.63110352 C-4.77963927 11.46709869 -5.89810955 10.23962675 -7 9 C-6.01 7.35 -5.02 5.7 -4 4 C-3.34 4.33 -2.68 4.66 -2 5 C-1.34 3.35 -0.68 1.7 0 0 Z " fill="#070812" transform="translate(570,522)"/>
<path d="M0 0 C3.86668719 0.52727553 5.04890097 2.61108471 7.75 5.375 C13.56279291 9.91216754 19.87609368 10.0249581 27.04296875 9.83203125 C33.49542989 9.03652234 38.53057326 6.65441125 43.0625 2 C43.619375 1.46375 44.17625 0.9275 44.75 0.375 C47.5 0.625 47.5 0.625 49.75 1.375 C49.08673901 6.60042103 47.15224855 8.49427334 43.171875 11.7265625 C34.77118542 17.44445122 25.71235137 18.4973555 15.75 17.375 C8.72055534 15.73641221 2.28987175 12.07650996 -2.25 6.375 C-3.02734375 3.71484375 -3.02734375 3.71484375 -3.25 1.375 C-2.25 0.375 -2.25 0.375 0 0 Z " fill="#0C0C16" transform="translate(280.25,479.625)"/>
<path d="M0 0 C1.32 0 2.64 0 4 0 C4 10.89 4 21.78 4 33 C4.66 33 5.32 33 6 33 C5.67 46.2 5.34 59.4 5 73 C3.35 73 1.7 73 0 73 C0 48.91 0 24.82 0 0 Z " fill="#090A0E" transform="translate(701,467)"/>
<path d="M0 0 C1.06089844 0.01353516 2.12179687 0.02707031 3.21484375 0.04101562 C5.81043687 0.07609121 8.40494067 0.12524156 11 0.1875 C11 0.5175 11 0.8475 11 1.1875 C5.06 1.5175 -0.88 1.8475 -7 2.1875 C-1.16607311 2.10844256 -1.16607311 2.10844256 4.66748047 2.00732422 C5.39338379 2.0023291 6.11928711 1.99733398 6.8671875 1.9921875 C7.61081543 1.98171387 8.35444336 1.97124023 9.12060547 1.96044922 C11 2.1875 11 2.1875 13 4.1875 C12.9765625 6.7890625 12.9765625 6.7890625 12.625 9.8125 C12.51414062 10.81539062 12.40328125 11.81828125 12.2890625 12.8515625 C12.14597656 14.00785156 12.14597656 14.00785156 12 15.1875 C11.67 15.1875 11.34 15.1875 11 15.1875 C11 11.5575 11 7.9275 11 4.1875 C7.6446453 4.27492613 4.29179934 4.38187517 0.9375 4.5 C-0.47692383 4.53383789 -0.47692383 4.53383789 -1.91992188 4.56835938 C-7.64264889 4.78769734 -11.96812557 5.37419437 -17 8.1875 C-19.4915904 11.9248856 -19.45793285 13.76081583 -19 18.1875 C-17.20437595 20.94079021 -15.94745078 22.71377461 -13 24.1875 C-5.00953283 24.86920419 0.31716549 24.59532702 7 20.1875 C9.4375 20.4375 9.4375 20.4375 11 21.1875 C6.70385877 25.72913502 3.58768774 28.89046449 -2.77734375 29.62109375 C-4.16395744 29.63821244 -5.55085296 29.6391626 -6.9375 29.625 C-7.97293945 29.6549707 -7.97293945 29.6549707 -9.02929688 29.68554688 C-14.17418107 29.68067021 -17.03797958 28.38871886 -21 25.1875 C-24.90733209 20.8688698 -25.70526303 17.24999716 -25.44140625 11.58984375 C-24.70972649 7.60769282 -23.03642823 5.78111578 -20 3.1875 C-13.25017167 -0.04934949 -7.40610221 -0.18074968 0 0 Z " fill="#131518" transform="translate(789,510.8125)"/>
<path d="M0 0 C0 5.0638251 -4.29838668 8.35068962 -7.671875 11.85546875 C-19.81286879 23.7618714 -35.87195897 30.30838598 -52.8125 30.16015625 C-57.59737832 29.91973957 -62.40320468 29.3971498 -67 28 C-67.33 27.34 -67.66 26.68 -68 26 C-65.15167564 25.05055855 -63.15112377 24.82434206 -60.18359375 24.71875 C-58.79043945 24.66267578 -58.79043945 24.66267578 -57.36914062 24.60546875 C-55.41081234 24.5350159 -53.45247897 24.46470396 -51.49414062 24.39453125 C-50.10291992 24.33845703 -50.10291992 24.33845703 -48.68359375 24.28125 C-47.83337646 24.25095703 -46.98315918 24.22066406 -46.10717773 24.18945312 C-43.94420576 24.12432098 -43.94420576 24.12432098 -42 23 C-39.43154781 22.96962979 -36.879238 23.06688815 -34.3125 23.16015625 C-31.80290553 23.24061362 -31.80290553 23.24061362 -30 21 C-27.67724823 20.59952556 -25.34260643 20.2602896 -23 20 C-23 19.34 -23 18.68 -23 18 C-22.071875 17.4225 -21.14375 16.845 -20.1875 16.25 C-16.83108644 14.28950723 -16.83108644 14.28950723 -15.71484375 11.09765625 C-13.5315417 7.15378717 -11.38330115 6.15610023 -7.375 4.1875 C-6.20710938 3.60355469 -5.03921875 3.01960937 -3.8359375 2.41796875 C-2.90007812 1.95003906 -1.96421875 1.48210938 -1 1 C-0.67 0.67 -0.34 0.34 0 0 Z " fill="#4995C3" transform="translate(342,527)"/>
<path d="M0 0 C1 2 1 2 0.0625 5.8125 C-2.20507862 15.53963035 -2.16116185 25.23941115 3 34 C5.16804502 36.84584925 7.47828617 39.46411924 10 42 C9.34 42.99 8.68 43.98 8 45 C4.76167364 44.46027894 2.60885414 43.66725741 0.37109375 41.21484375 C-6.53196408 31.40523525 -7.80073722 21.84167162 -7 10 C-5.87327121 6.61981362 -4.51913637 5.4427989 -2 3 C-1.34 2.01 -0.68 1.02 0 0 Z " fill="#0B0C12" transform="translate(630,487)"/>
<path d="M0 0 C3.71757722 1.33271636 5.50403429 2.33871239 7.875 5.5 C9 8 9 8 9 11 C0.75 11 -7.5 11 -16 11 C-15 5 -15 5 -12.5625 2.6875 C-8.32998749 -0.09976433 -5.01696304 -0.51384165 0 0 Z " fill="#F5F5F6" transform="translate(588,499)"/>
<path d="M0 0 C0.66 0.33 1.32 0.66 2 1 C2.01458252 1.94319092 2.02916504 2.88638184 2.04418945 3.8581543 C2.10539606 7.37158661 2.17957508 10.88425446 2.26245117 14.3972168 C2.29561916 15.91501621 2.32367632 17.43293656 2.34643555 18.95092773 C2.38013278 21.13838019 2.43245204 23.32473264 2.48828125 25.51171875 C2.51446533 26.82615967 2.54064941 28.14060059 2.56762695 29.49487305 C3.02241952 33.18174877 3.75558586 35.0757412 6 38 C9.30279131 40.20186088 9.79197351 40.20044366 13.5 39.6875 C14.66015625 39.53861328 14.66015625 39.53861328 15.84375 39.38671875 C18.17239621 39.02241751 18.17239621 39.02241751 21 38 C21.33 39.32 21.66 40.64 22 42 C17.85038396 45.73266897 14.31047283 45.54803237 8.92578125 45.4296875 C4.53753939 44.7852194 2.89765088 43.28922532 0 40 C-1.6082664 36.78346721 -1.14179685 33.27848471 -1.1328125 29.74609375 C-1.13376923 28.93004166 -1.13472595 28.11398956 -1.13571167 27.27320862 C-1.13639256 25.54745405 -1.13454461 23.82169692 -1.13037109 22.09594727 C-1.12501468 19.44476617 -1.13032267 16.79375397 -1.13671875 14.14257812 C-1.13605809 12.46874962 -1.13477717 10.79492123 -1.1328125 9.12109375 C-1.13483673 8.32319931 -1.13686096 7.52530487 -1.13894653 6.70323181 C-1.11495544 1.11495544 -1.11495544 1.11495544 0 0 Z " fill="#020405" transform="translate(831,495)"/>
<path d="M0 0 C3.34265205 1.20706879 3.94704566 1.92056849 6 5 C6.4537248 8.55417758 6.46380307 10.31357146 4.4375 13.3125 C1.17910394 15.56831266 -1.04475779 16 -5 16 C-8.82125828 14.00630003 -9.78240253 12.66488116 -11.125 8.5625 C-11 5 -11 5 -8.9375 2.0625 C-5.52298079 -0.33492838 -4.0794407 -0.60757627 0 0 Z " fill="#0C0E19" transform="translate(476,466)"/>
<path d="M0 0 C0.79776855 -0.00386719 1.59553711 -0.00773437 2.41748047 -0.01171875 C8.6436712 0.11093964 12.33810102 1.27497915 17.125 5.4375 C16.465 6.0975 15.805 6.7575 15.125 7.4375 C14.465 7.1075 13.805 6.7775 13.125 6.4375 C14.1459375 7.6440625 14.1459375 7.6440625 15.1875 8.875 C17.68598202 12.53067369 17.18124628 15.45664754 16.484375 19.6796875 C16.36578125 20.25976562 16.2471875 20.83984375 16.125 21.4375 C15.795 21.4375 15.465 21.4375 15.125 21.4375 C15.09921875 20.84582031 15.0734375 20.25414062 15.046875 19.64453125 C14.67054526 14.4015737 14.11340916 11.19800006 10.125 7.4375 C5.21205886 4.37096091 -0.28527865 4.94302465 -5.875 5.4375 C-8.69007959 6.22299801 -11.17734551 7.28136236 -13.875 8.4375 C-15.195 8.4375 -16.515 8.4375 -17.875 8.4375 C-18.205 7.4475 -18.535 6.4575 -18.875 5.4375 C-13.19582027 0.63204023 -7.15884157 0.02378847 0 0 Z " fill="#14151D" transform="translate(784.875,489.5625)"/>
<path d="M0 0 C4.84372534 0.47238661 7.37800305 1.66520388 11.0625 4.8125 C11.87847656 5.49957031 12.69445312 6.18664062 13.53515625 6.89453125 C14.34855469 7.58933594 15.16195312 8.28414062 16 9 C19.66731501 12.07616573 22.44675087 13.54683538 27 15 C28.35335895 15.97272675 29.68662604 16.9739266 31 18 C35.34287459 20.50921643 39.01399907 21.50139991 44 22 C43.34 22.66 42.68 23.32 42 24 C42.99 24.66 43.98 25.32 45 26 C39.45547028 25.48422979 35.30170022 24.04988466 30.375 21.5 C29.68204834 21.14687744 28.98909668 20.79375488 28.27514648 20.42993164 C21.42160991 16.84806155 15.19724741 12.61901507 9 8 C8.07445312 7.31035156 7.14890625 6.62070312 6.1953125 5.91015625 C1.79562649 2.55899354 1.79562649 2.55899354 0 1 C0 0.67 0 0.34 0 0 Z " fill="#5FAEC6" transform="translate(233,530)"/>
<path d="M0 0 C0.33 0 0.66 0 1 0 C1.33 9.9 1.66 19.8 2 30 C4.31 28.02 6.62 26.04 9 24 C12.4375 23.125 12.4375 23.125 15 23 C14.34 23.66 13.68 24.32 13 25 C14.49853516 25.07347656 14.49853516 25.07347656 16.02734375 25.1484375 C17.31769531 25.22320312 18.60804688 25.29796875 19.9375 25.375 C21.86916016 25.47941406 21.86916016 25.47941406 23.83984375 25.5859375 C24.88269531 25.72257812 25.92554688 25.85921875 27 26 C27.33 26.66 27.66 27.32 28 28 C26.98679687 27.95359375 25.97359375 27.9071875 24.9296875 27.859375 C23.57815468 27.82183242 22.22658972 27.78543494 20.875 27.75 C20.20984375 27.71648437 19.5446875 27.68296875 18.859375 27.6484375 C12.15938392 27.51706513 8.79475833 30.28327464 4.125 34.75 C3.073125 35.86375 3.073125 35.86375 2 37 C2 35.68 2 34.36 2 33 C1.34 33 0.68 33 0 33 C0 22.11 0 11.22 0 0 Z " fill="#20242D" transform="translate(705,467)"/>
<path d="M0 0 C0.66 0 1.32 0 2 0 C2.680625 0.845625 3.36125 1.69125 4.0625 2.5625 C6.65083673 5.19577253 6.65083673 5.19577253 9.22265625 5.14453125 C12.65793816 4.75910938 15.71683909 4.09438697 19 3 C19.33 4.32 19.66 5.64 20 7 C15.85082028 10.73227649 12.31089185 10.55337953 6.92578125 10.421875 C2.4708227 9.77950447 0.87615632 8.42029401 -2 5 C-2.875 2.6875 -2.875 2.6875 -3 1 C-2.34 1 -1.68 1 -1 1 C-0.67 1.33 -0.34 1.66 0 2 C0 1.34 0 0.68 0 0 Z " fill="#14161C" transform="translate(833,530)"/>
<path d="M0 0 C5.75 1.625 5.75 1.625 8 5 C8.14245897 7.76655324 8.18769445 10.42653306 8.125 13.1875 C8.11597656 13.93708984 8.10695313 14.68667969 8.09765625 15.45898438 C8.07412578 17.30612654 8.03825561 19.15310412 8 21 C7.27530518 20.83701416 6.55061035 20.67402832 5.80395508 20.50610352 C3.16674415 20.0300967 0.81006659 19.88509634 -1.86328125 19.90234375 C-2.74951172 19.90556641 -3.63574219 19.90878906 -4.54882812 19.91210938 C-5.9168457 19.92467773 -5.9168457 19.92467773 -7.3125 19.9375 C-8.70952148 19.94426758 -8.70952148 19.94426758 -10.13476562 19.95117188 C-12.42324373 19.96290766 -14.71158808 19.97932637 -17 20 C-13.9788566 17.9859044 -13.19339983 17.73163404 -9.76953125 17.5859375 C-8.56586914 17.52792969 -8.56586914 17.52792969 -7.33789062 17.46875 C-6.50451172 17.4378125 -5.67113281 17.406875 -4.8125 17.375 C-3.96751953 17.33632813 -3.12253906 17.29765625 -2.25195312 17.2578125 C-0.16832476 17.16363721 1.91580753 17.08073325 4 17 C5.27036324 10.5985411 5.27036324 10.5985411 3.125 4.5625 C2.42375 3.716875 1.7225 2.87125 1 2 C0.67 1.34 0.34 0.68 0 0 Z " fill="#010307" transform="translate(796,494)"/>
<path d="M0 0 C0.55945313 0.34933594 1.11890625 0.69867187 1.6953125 1.05859375 C9.03175896 5.22220404 15.64777042 5.86761596 24 6 C24 6.33 24 6.66 24 7 C18.06 7.495 18.06 7.495 12 8 C12 8.66 12 9.32 12 10 C12.99 10.33 13.98 10.66 15 11 C6.5922484 10.59963088 -0.15039699 8.29108249 -6 2 C-4.7934375 1.7834375 -4.7934375 1.7834375 -3.5625 1.5625 C-1.07896294 1.25864751 -1.07896294 1.25864751 0 0 Z " fill="#0A0C13" transform="translate(640,529)"/>
<path d="M0 0 C7.43024975 -0.36878078 14.57196925 -0.6288252 20.6015625 4.3125 C21.79348027 5.4844415 22.9065454 6.73569312 24 8 C23.67 8.99 23.34 9.98 23 11 C21.35 9.35 19.7 7.7 18 6 C17.90754997 7.46225016 17.90754997 7.46225016 20 10 C19.01 10.495 19.01 10.495 18 11 C16 9 14 7 12 5 C9.47403741 4.76346477 6.96892793 4.57826308 4.4375 4.4375 C3.72658203 4.39431641 3.01566406 4.35113281 2.28320312 4.30664062 C0.52238088 4.20028223 -1.2387832 4.09961154 -3 4 C-2.67 3.34 -2.34 2.68 -2 2 C-1.34 2 -0.68 2 0 2 C0 1.34 0 0.68 0 0 Z " fill="#0F101B" transform="translate(720,489)"/>
<path d="M0 0 C1.02480469 0.00322266 2.04960938 0.00644531 3.10546875 0.00976562 C4.16894531 0.01814453 5.23242188 0.02652344 6.328125 0.03515625 C7.40707031 0.03966797 8.48601563 0.04417969 9.59765625 0.04882812 C12.25786883 0.06059898 14.91796865 0.07704226 17.578125 0.09765625 C17.578125 0.42765625 17.578125 0.75765625 17.578125 1.09765625 C11.638125 1.42765625 5.698125 1.75765625 -0.421875 2.09765625 C5.41205189 2.01859881 5.41205189 2.01859881 11.24560547 1.91748047 C11.97150879 1.91248535 12.69741211 1.90749023 13.4453125 1.90234375 C14.18894043 1.89187012 14.93256836 1.88139648 15.69873047 1.87060547 C17.578125 2.09765625 17.578125 2.09765625 19.578125 4.09765625 C19.5546875 6.69921875 19.5546875 6.69921875 19.203125 9.72265625 C19.09226562 10.72554687 18.98140625 11.7284375 18.8671875 12.76171875 C18.72410156 13.91800781 18.72410156 13.91800781 18.578125 15.09765625 C18.248125 15.09765625 17.918125 15.09765625 17.578125 15.09765625 C17.578125 11.46765625 17.578125 7.83765625 17.578125 4.09765625 C14.2227703 4.18508238 10.86992434 4.29203142 7.515625 4.41015625 C6.10120117 4.44399414 6.10120117 4.44399414 4.65820312 4.47851562 C-1.13997852 4.70074558 -5.2138529 5.5715285 -10.421875 8.09765625 C-11.411875 8.09765625 -12.401875 8.09765625 -13.421875 8.09765625 C-13.421875 7.43765625 -13.421875 6.77765625 -13.421875 6.09765625 C-12.431875 5.76765625 -11.441875 5.43765625 -10.421875 5.09765625 C-9.68863704 3.08257267 -9.68863704 3.08257267 -9.421875 1.09765625 C-6.21405414 0.14389058 -3.34000104 -0.01855556 0 0 Z " fill="#282930" transform="translate(782.421875,510.90234375)"/>
<path d="M0 0 C6.69891766 1.65788103 11.60695547 3.66211636 17 8 C16.34 9.32 15.68 10.64 15 12 C12.3570134 11.01831926 10.0143339 10.00905299 7.625 8.5 C4.51761555 6.72435174 1.45636387 5.88103393 -2 5 C-2 4.67 -2 4.34 -2 4 C-0.02 4 1.96 4 4 4 C4 3.34 4 2.68 4 2 C2.68 2 1.36 2 0 2 C0 1.34 0 0.68 0 0 Z " fill="#1C1C27" transform="translate(667,471)"/>
<path d="M0 0 C6.43577743 0.37129485 6.43577743 0.37129485 9.1875 3.4375 C10.0846875 4.7059375 10.0846875 4.7059375 11 6 C11.721875 6.350625 12.44375 6.70125 13.1875 7.0625 C15 8 15 8 15.75 10.125 C15.87375 11.053125 15.87375 11.053125 16 12 C11.89929451 12 9.5525607 9.9516811 6.3125 7.6875 C5.70599609 7.28337891 5.09949219 6.87925781 4.47460938 6.46289062 C2.92355933 5.389892 1.45414006 4.20106576 0 3 C0 2.01 0 1.02 0 0 Z " fill="#5EB4C7" transform="translate(218,517)"/>
<path d="M0 0 C-2.64 0.99 -5.28 1.98 -8 3 C-6.75863281 2.75443359 -6.75863281 2.75443359 -5.4921875 2.50390625 C-1.67805811 1.9535453 2.03353501 1.88910945 5.875 1.9375 C6.90753906 1.94426758 6.90753906 1.94426758 7.9609375 1.95117188 C9.64066335 1.96283664 11.32034375 1.98076729 13 2 C13 2.66 13 3.32 13 4 C11.62328125 3.94779297 11.62328125 3.94779297 10.21875 3.89453125 C2.94554956 3.734093 -2.36735001 4.05215556 -9 7 C-10.32 7 -11.64 7 -13 7 C-13.33 6.01 -13.66 5.02 -14 4 C-9.51567418 0.20557046 -5.79296166 -1.44824041 0 0 Z " fill="#1C1F26" transform="translate(780,491)"/>
<path d="M0 0 C0 0.33 0 0.66 0 1 C-3.66689972 0.85969417 -7.33345412 0.71174579 -11 0.5625 C-12.02996094 0.52318359 -13.05992187 0.48386719 -14.12109375 0.44335938 C-19.80241075 0.20814561 -25.37046268 -0.19481377 -31 -1 C-31 -1.33 -31 -1.66 -31 -2 C-20.47520088 -4.43939269 -10.20729384 -3.1407058 0 0 Z " fill="#DDF6F7" transform="translate(206,513)"/>
<path d="M0 0 C0.66 0.33 1.32 0.66 2 1 C0.66536458 2.46484375 -0.66927083 3.9296875 -2.00390625 5.39453125 C-2.33261719 5.92433594 -2.66132813 6.45414062 -3 7 C-2.67 7.99 -2.34 8.98 -2 10 C-3.61992165 10.86375896 -5.24611861 11.71575854 -6.875 12.5625 C-8.23238281 13.27599609 -8.23238281 13.27599609 -9.6171875 14.00390625 C-10.40351563 14.33261719 -11.18984375 14.66132813 -12 15 C-12.66 14.67 -13.32 14.34 -14 14 C-9.72706118 8.76564995 -5.18419194 4.32893185 0 0 Z " fill="#B1D9A2" transform="translate(194,482)"/>
<path d="M0 0 C1.90652344 0.00966797 1.90652344 0.00966797 3.8515625 0.01953125 C6.82547187 0.16130298 9.48836541 0.49625609 12.375 1.1875 C8.82766014 3.55239324 7.43243555 3.37359443 3.25 3.25 C-0.85447664 3.17203787 -4.74761038 3.23746683 -8.8125 3.8125 C-10.070625 3.93625 -11.32875 4.06 -12.625 4.1875 C-13.285 3.5275 -13.945 2.8675 -14.625 2.1875 C-9.58012632 0.53846506 -5.36543562 -0.06010162 0 0 Z " fill="#87C8CA" transform="translate(205.625,494.8125)"/>
<path d="M0 0 C11.50642393 -0.41423126 20.74962093 0.33531683 31 6 C30.67 6.66 30.34 7.32 30 8 C26.7917085 6.95730526 23.71116031 5.8716268 20.625 4.5 C14.11958503 1.98712402 6.8845249 1.71017551 0 1 C0 0.67 0 0.34 0 0 Z " fill="#87C5CD" transform="translate(184,509)"/>
<path d="M0 0 C0 0.33 0 0.66 0 1 C-1.00160156 1.06058594 -2.00320313 1.12117188 -3.03515625 1.18359375 C-4.37761331 1.26808405 -5.72006072 1.35272768 -7.0625 1.4375 C-8.37347656 1.51871094 -9.68445313 1.59992188 -11.03515625 1.68359375 C-14.73663238 1.97898249 -18.33370448 2.43265388 -22 3 C-20.52535422 0.05070844 -18.16402111 -0.34743364 -15.1875 -1.39453125 C-9.71032993 -2.91053368 -5.19528356 -2.02742773 0 0 Z " fill="#000105" transform="translate(793,492)"/>
<path d="M0 0 C0 3.96130371 -1.34877125 4.82914401 -4 7.6875 C-4.7425 8.49574219 -5.485 9.30398438 -6.25 10.13671875 C-6.8275 10.75160156 -7.405 11.36648438 -8 12 C-8.66 11.34 -9.32 10.68 -10 10 C-11.31747324 9.30251417 -12.64914193 8.63040043 -14 8 C-13.07316406 7.50628906 -12.14632813 7.01257813 -11.19140625 6.50390625 C-9.98172045 5.85686501 -8.77208778 5.20972446 -7.5625 4.5625 C-6.95083984 4.23701172 -6.33917969 3.91152344 -5.70898438 3.57617188 C-2.66283794 2.06284858 -2.66283794 2.06284858 0 0 Z " fill="#599DBF" transform="translate(342,527)"/>
<path d="M0 0 C-2.97 2.97 -5.94 5.94 -9 9 C-9.99 8.67 -10.98 8.34 -12 8 C-11.67 6.02 -11.34 4.04 -11 2 C-9.54494642 1.47007308 -8.08581873 0.9513211 -6.625 0.4375 C-5.81289063 0.14746094 -5.00078125 -0.14257812 -4.1640625 -0.44140625 C-2 -1 -2 -1 0 0 Z " fill="#8BC8A6" transform="translate(348,514)"/>
<path d="M0 0 C1.258125 -0.04125 2.51625 -0.0825 3.8125 -0.125 C4.52019531 -0.14820313 5.22789062 -0.17140625 5.95703125 -0.1953125 C8 0 8 0 11 2 C11 2.66 11 3.32 11 4 C11.66 4 12.32 4 13 4 C13.33 4.99 13.66 5.98 14 7 C9 5.33333333 4 3.66666667 -1 2 C-0.67 1.34 -0.34 0.68 0 0 Z " fill="#62B6D0" transform="translate(267,531)"/>
<path d="M0 0 C5.28 0.33 10.56 0.66 16 1 C16 1.33 16 1.66 16 2 C10.06 2.495 10.06 2.495 4 3 C4 3.66 4 4.32 4 5 C4.99 5.33 5.98 5.66 7 6 C5.54077307 5.88590407 4.08259402 5.75834456 2.625 5.625 C1.40683594 5.52058594 1.40683594 5.52058594 0.1640625 5.4140625 C-2 5 -2 5 -4 3 C-2.68 2.67 -1.36 2.34 0 2 C0 1.34 0 0.68 0 0 Z " fill="#2F3239" transform="translate(648,534)"/>
<path d="M0 0 C0.515625 0.2475 1.03125 0.495 1.5625 0.75 C-1.53776309 4.02742098 -4.40848894 6.68104837 -8.4375 8.75 C-9.0975 8.75 -9.7575 8.75 -10.4375 8.75 C-10.4375 8.09 -10.4375 7.43 -10.4375 6.75 C-9.4475 6.75 -8.4575 6.75 -7.4375 6.75 C-7.4375 6.09 -7.4375 5.43 -7.4375 4.75 C-8.0975 4.42 -8.7575 4.09 -9.4375 3.75 C-3.0375 -0.31153846 -3.0375 -0.31153846 0 0 Z " fill="#151A20" transform="translate(798.4375,531.25)"/>
<path d="M0 0 C-0.99 0.495 -0.99 0.495 -2 1 C-0.50146484 1.07347656 -0.50146484 1.07347656 1.02734375 1.1484375 C2.96287109 1.26058594 2.96287109 1.26058594 4.9375 1.375 C6.86916016 1.47941406 6.86916016 1.47941406 8.83984375 1.5859375 C10.40412109 1.79089844 10.40412109 1.79089844 12 2 C12.33 2.66 12.66 3.32 13 4 C11.48019531 3.98259766 11.48019531 3.98259766 9.9296875 3.96484375 C8.57812686 3.95545791 7.2265642 3.94635857 5.875 3.9375 C5.20984375 3.92912109 4.5446875 3.92074219 3.859375 3.91210938 C-0.20681354 3.89217708 -4.0120092 4.21109839 -8 5 C-8 3.68 -8 2.36 -8 1 C-4.93251126 -0.86240388 -3.40254489 -1.2151946 0 0 Z " fill="#2D2F38" transform="translate(720,491)"/>
<path d="M0 0 C1.50433594 0.01353516 1.50433594 0.01353516 3.0390625 0.02734375 C3.80992187 0.03894531 4.58078125 0.05054688 5.375 0.0625 C5.375 1.0525 5.375 2.0425 5.375 3.0625 C1.085 3.0625 -3.205 3.0625 -7.625 3.0625 C-7.625 2.4025 -7.625 1.7425 -7.625 1.0625 C-4.98041621 -0.25979189 -2.94738699 -0.03427194 0 0 Z " fill="#010204" transform="translate(843.625,489.9375)"/>
<path d="M0 0 C0.99 0 1.98 0 3 0 C3.33 0.99 3.66 1.98 4 3 C3.34 3.66 2.68 4.32 2 5 C3.98 7.97 3.98 7.97 6 11 C5.01 11 4.02 11 3 11 C1.61328125 9.46875 1.61328125 9.46875 0.3125 7.5 C-0.12449219 6.8503125 -0.56148437 6.200625 -1.01171875 5.53125 C-1.33785156 5.0259375 -1.66398438 4.520625 -2 4 C-1.34 2.68 -0.68 1.36 0 0 Z " fill="#11141D" transform="translate(629,519)"/>
<path d="M0 0 C0 0.66 0 1.32 0 2 C-0.99 2 -1.98 2 -3 2 C-3 2.66 -3 3.32 -3 4 C-6.3 4 -9.6 4 -13 4 C-13 3.34 -13 2.68 -13 2 C-11.58461283 1.66127487 -10.16762037 1.32925376 -8.75 1 C-7.56664062 0.7215625 -7.56664062 0.7215625 -6.359375 0.4375 C-4 0 -4 0 0 0 Z " fill="#030508" transform="translate(791,536)"/>
<path d="M0 0 C1.32 0.66 2.64 1.32 4 2 C2.50164772 6.66154042 -0.88463591 7.86610751 -5 10 C-3.70700306 7.11562221 -2.34058637 5.12780579 0 3 C-0.99 2.67 -1.98 2.34 -3 2 C-2.01 1.34 -1.02 0.68 0 0 Z " fill="#161B23" transform="translate(680,527)"/>
<path d="M0 0 C0.33 0 0.66 0 1 0 C1.1676046 4.27079707 1.33392359 8.54164325 1.5 12.8125 C1.54769531 14.02744141 1.59539063 15.24238281 1.64453125 16.49414062 C1.68964844 17.65751953 1.73476563 18.82089844 1.78125 20.01953125 C1.82314453 21.09307861 1.86503906 22.16662598 1.90820312 23.27270508 C1.97243254 25.18096796 2 27.09065649 2 29 C1.34 29.33 0.68 29.66 0 30 C0 20.1 0 10.2 0 0 Z " fill="#E3E4E7" transform="translate(706,468)"/>
<path d="M0 0 C0.99 0 1.98 0 3 0 C3 3.63 3 7.26 3 11 C2.01 11 1.02 11 0 11 C0 7.37 0 3.74 0 0 Z " fill="#000206" transform="translate(830,477)"/>
<path d="M0 0 C1.98567708 0.09765625 3.97135417 0.1953125 5.95703125 0.29296875 C6.28703125 1.28296875 6.61703125 2.27296875 6.95703125 3.29296875 C2.99703125 3.29296875 -0.96296875 3.29296875 -5.04296875 3.29296875 C-2.04296875 0.29296875 -2.04296875 0.29296875 0 0 Z " fill="#010208" transform="translate(722.04296875,489.70703125)"/>
<path d="M0 0 C-1.44253657 3.36591866 -3.33264727 5.51047079 -6 8 C-6 6.68 -6 5.36 -6 4 C-7.32 4.33 -8.64 4.66 -10 5 C-8.34220923 2.29518348 -7.54112366 1.15837766 -4.4375 0.25 C-2 0 -2 0 0 0 Z " fill="#121720" transform="translate(638,481)"/>
<path d="M0 0 C1.32 0.99 2.64 1.98 4 3 C2.68 4.32 1.36 5.64 0 7 C-1.98 5.68 -3.96 4.36 -6 3 C-5.38125 2.87625 -4.7625 2.7525 -4.125 2.625 C-1.80879168 2.12802644 -1.80879168 2.12802644 0 0 Z " fill="#1B1E29" transform="translate(640,529)"/>
<path d="M0 0 C3.64413322 0.20245185 4.8197988 0.81031452 7.375 3.5 C9.48528487 8.04522895 8.98127783 11.20027146 8 16 C7.67 16 7.34 16 7 16 C6.96132813 15.11248047 6.96132813 15.11248047 6.921875 14.20703125 C6.54190619 8.91337489 5.89392143 5.89392143 2 2 C1.34 1.34 0.68 0.68 0 0 Z " fill="#252731" transform="translate(793,495)"/>
<path d="M0 0 C1.65 0 3.3 0 5 0 C5.66 1.32 6.32 2.64 7 4 C5.02 4.99 5.02 4.99 3 6 C0 2.25 0 2.25 0 0 Z " fill="#0E0F16" transform="translate(677,477)"/>
<path d="M0 0 C2.31 0.66 4.62 1.32 7 2 C7.33 3.32 7.66 4.64 8 6 C4.06830895 6 2.83572772 4.60580385 0 2 C0 1.34 0 0.68 0 0 Z " fill="#8AC79E" transform="translate(253,504)"/>
<path d="M0 0 C5.35152885 0.32433508 8.28280043 3.49704824 12 7 C11.67 7.99 11.34 8.98 11 10 C10.29875 9.2575 9.5975 8.515 8.875 7.75 C6.77717418 5.743384 5.06971505 4.28910331 2.6875 2.75 C1.800625 2.1725 0.91375 1.595 0 1 C0 0.67 0 0.34 0 0 Z " fill="#1A1C24" transform="translate(732,490)"/>
<path d="M0 0 C1.15224028 0.92961422 2.29659176 1.8690125 3.4375 2.8125 C4.07558594 3.33457031 4.71367187 3.85664063 5.37109375 4.39453125 C7 6 7 6 8 9 C7.01 9 6.02 9 5 9 C0 3.76744186 0 3.76744186 0 0 Z " fill="#191A25" transform="translate(277,481)"/>
<path d="M0 0 C0.99 0.33 1.98 0.66 3 1 C0.75 3.5625 0.75 3.5625 -2 6 C-4.3125 5.8125 -4.3125 5.8125 -6 5 C-1.60546875 0.99609375 -1.60546875 0.99609375 0 0 Z " fill="#15161E" transform="translate(569,492)"/>
<path d="M0 0 C0 2.31 0 4.62 0 7 C1.32 7.33 2.64 7.66 4 8 C2.35 8 0.7 8 -1 8 C-1.33 7.01 -1.66 6.02 -2 5 C-4.01508358 4.26676204 -4.01508358 4.26676204 -6 4 C-1.125 0 -1.125 0 0 0 Z " fill="#BCC2C8" transform="translate(801,532)"/>
<path d="M0 0 C0.33 1.32 0.66 2.64 1 4 C-0.98 4.99 -0.98 4.99 -3 6 C-3.99 4.68 -4.98 3.36 -6 2 C-2.25 0 -2.25 0 0 0 Z " fill="#181C22" transform="translate(852,533)"/>
<path d="M0 0 C-1.49041773 3.79379058 -3.69062512 5.68343758 -7 8 C-7.66 8 -8.32 8 -9 8 C-9 6 -9 6 -7.5390625 4.4921875 C-6.59160156 3.69167969 -6.59160156 3.69167969 -5.625 2.875 C-4.99851562 2.33617187 -4.37203125 1.79734375 -3.7265625 1.2421875 C-2 0 -2 0 0 0 Z " fill="#161A27" transform="translate(328,485)"/>
<path d="M0 0 C0 3 0 3 -2.375 5.6875 C-5 8 -5 8 -7 8 C-6.875 6.25 -6.875 6.25 -6 4 C-2.9375 1.75 -2.9375 1.75 0 0 Z " fill="#60A0B3" transform="translate(342,527)"/>
<path d="M0 0 C2.97 0.495 2.97 0.495 6 1 C6 1.99 6 2.98 6 4 C6.66 4 7.32 4 8 4 C7.67 4.66 7.34 5.32 7 6 C5.83054208 5.19152271 4.66449539 4.37810888 3.5 3.5625 C2.8503125 3.11003906 2.200625 2.65757812 1.53125 2.19140625 C1.0259375 1.79824219 0.520625 1.40507813 0 1 C0 0.67 0 0.34 0 0 Z " fill="#68B8C8" transform="translate(233,530)"/>
<path d="M0 0 C3.73639216 1.24546405 4.18756513 2.63404953 6 6 C5.01 6 4.02 6 3 6 C0.8125 3.5 0.8125 3.5 -1 1 C-0.67 0.67 -0.34 0.34 0 0 Z " fill="#1A1B25" transform="translate(337,447)"/>
<path d="M0 0 C-0.99 0.495 -0.99 0.495 -2 1 C-2 1.66 -2 2.32 -2 3 C-3.32 3 -4.64 3 -6 3 C-6.33 2.01 -6.66 1.02 -7 0 C-4.3333581 -1.33332095 -2.83319697 -0.67102033 0 0 Z " fill="#05070A" transform="translate(779,536)"/>
<path d="M0 0 C2.97 0.99 5.94 1.98 9 3 C6 5 6 5 3.8125 4.625 C3.214375 4.41875 2.61625 4.2125 2 4 C2 3.34 2 2.68 2 2 C1.34 2 0.68 2 0 2 C0 1.34 0 0.68 0 0 Z " fill="#7BC0CE" transform="translate(278,533)"/>
<path d="M0 0 C1.65 0 3.3 0 5 0 C5 1.65 5 3.3 5 5 C2.5 3.625 2.5 3.625 0 2 C0 1.34 0 0.68 0 0 Z " fill="#68B9C8" transform="translate(221,520)"/>
<path d="M0 0 C0.66 0 1.32 0 2 0 C3.42944945 2.35438733 4.08661261 3.48032433 3.625 6.25 C3.41875 6.8275 3.2125 7.405 3 8 C2.34 7.67 1.68 7.34 1 7 C0.59270772 4.67843403 0.25561323 2.3431213 0 0 Z " fill="#02030A" transform="translate(417,518)"/>
</svg>
